<svg width="1024" height="1024" viewBox="0 0 1024 1024" fill="none" xmlns="http://www.w3.org/2000/svg">
  <rect width="1024" height="1024" rx="232" fill="#0B1220"/>
  <circle cx="512" cy="512" r="350" fill="url(#glow)" opacity="0.55"/>

  <g opacity="0.92">
    <rect x="238" y="288" width="218" height="282" rx="30" transform="rotate(-9 238 288)" fill="#D9E4DF"/>
    <rect x="275" y="257" width="218" height="282" rx="30" transform="rotate(6 275 257)" fill="#F6F8F5"/>
    <path d="M312 345H420" stroke="#94A3B8" stroke-width="18" stroke-linecap="round"/>
    <path d="M313 394H455" stroke="#CBD5E1" stroke-width="18" stroke-linecap="round"/>
    <path d="M313 443H405" stroke="#CBD5E1" stroke-width="18" stroke-linecap="round"/>
  </g>

  <path d="M455 511C506 511 545 490 574 455" stroke="#38BDF8" stroke-width="24" stroke-linecap="round"/>
  <path d="M552 455H574V477" stroke="#38BDF8" stroke-width="24" stroke-linecap="round" stroke-linejoin="round"/>

  <g filter="url(#shadow)">
    <rect x="540" y="276" width="270" height="356" rx="38" fill="#FFFFFF"/>
    <path d="M720 276V344C720 356.15 729.85 366 742 366H810" fill="#EAF3EF"/>
    <path d="M720 276V344C720 356.15 729.85 366 742 366H810" stroke="#D8E6E0" stroke-width="4"/>
    <path d="M594 402H748" stroke="#0B1220" stroke-width="20" stroke-linecap="round"/>
    <path d="M594 462H720" stroke="#94A3B8" stroke-width="20" stroke-linecap="round"/>
    <path d="M594 522H680" stroke="#CBD5E1" stroke-width="20" stroke-linecap="round"/>
  </g>

  <circle cx="718" cy="642" r="78" fill="#22C55E"/>
  <path d="M681 640L707 666L759 610" stroke="white" stroke-width="22" stroke-linecap="round" stroke-linejoin="round"/>

  <path d="M213 247V204C213 190.745 223.745 180 237 180H280" stroke="#38BDF8" stroke-width="18" stroke-linecap="round"/>
  <path d="M811 777H854C867.255 777 878 766.255 878 753V710" stroke="#38BDF8" stroke-width="18" stroke-linecap="round"/>

  <defs>
    <radialGradient id="glow" cx="0" cy="0" r="1" gradientUnits="userSpaceOnUse" gradientTransform="translate(512 512) rotate(90) scale(350)">
      <stop stop-color="#164E63"/>
      <stop offset="1" stop-color="#0B1220" stop-opacity="0"/>
    </radialGradient>
    <filter id="shadow" x="500" y="246" width="350" height="436" filterUnits="userSpaceOnUse" color-interpolation-filters="sRGB">
      <feDropShadow dx="0" dy="22" stdDeviation="22" flood-color="#020617" flood-opacity="0.25"/>
    </filter>
  </defs>
</svg>
